<svg width="28" height="28" viewBox="0 0 28 28" fill="none" xmlns="http://www.w3.org/2000/svg">
<path d="M5.52206 12.34C5.56457 11.8388 5.805 11.3711 6.19548 11.0302C6.58596 10.6892 7.09783 10.4999 7.62915 10.5H20.371C20.9023 10.4999 21.4142 10.6892 21.8047 11.0302C22.1952 11.3711 22.4356 11.8388 22.4781 12.34L23.3266 22.34C23.35 22.6152 23.3129 22.892 23.2176 23.1529C23.1224 23.4139 22.9711 23.6533 22.7732 23.8562C22.5754 24.0592 22.3353 24.2211 22.0681 24.3319C21.8009 24.4427 21.5123 24.4999 21.2206 24.5H6.77955C6.48782 24.4999 6.19926 24.4427 5.93205 24.3319C5.66483 24.2211 5.42475 24.0592 5.22692 23.8562C5.02909 23.6533 4.87779 23.4139 4.78254 23.1529C4.6873 22.892 4.65018 22.6152 4.67352 22.34L5.52206 12.34V12.34Z" stroke="#1A1A1A" stroke-width="1.5" stroke-linecap="round" stroke-linejoin="round"/>
<path d="M18.6668 12.8333V7.64815C18.6668 6.54799 18.1752 5.49289 17.3 4.71496C16.4248 3.93704 15.2378 3.5 14.0002 3.5C12.7625 3.5 11.5755 3.93704 10.7003 4.71496C9.82516 5.49289 9.3335 6.54799 9.3335 7.64815V12.8333" stroke="#1A1A1A" stroke-width="1.5" stroke-linecap="round" stroke-linejoin="round"/>
</svg>
