<svg width="22" height="22" viewBox="0 0 22 22" fill="none" xmlns="http://www.w3.org/2000/svg">
<mask id="path-1-outside-1_56_3129" maskUnits="userSpaceOnUse" x="0.0437012" y="-0.448883" width="22" height="23" fill="black">
<rect fill="white" x="0.0437012" y="-0.448883" width="22" height="23"/>
<path fill-rule="evenodd" clip-rule="evenodd" d="M10.9999 0.551117C6.89361 0.551117 3.56442 3.87988 3.56442 7.98597V13.5411L1.49166 15.6706C0.523595 16.6649 1.22803 18.3341 2.61597 18.3341H6.56042C7.20671 20.1622 8.94958 21.4723 10.9997 21.4723C13.0498 21.4723 14.7926 20.1622 15.439 18.3341H19.3834C20.7713 18.3341 21.4758 16.6649 20.5079 15.6706L18.4347 13.5411V7.98597C18.4347 3.8797 15.1059 0.551117 10.9998 0.551117H10.9999ZM4.61049 7.98597C4.61049 4.45761 7.47104 1.59718 10.9999 1.59718C14.5287 1.59718 17.3887 4.45773 17.3887 7.98597V13.7536C17.3887 13.8899 17.4421 14.0207 17.5372 14.1185L19.7582 16.4C20.0809 16.7316 19.846 17.288 19.3834 17.288H2.61584C2.15328 17.288 1.91839 16.7316 2.24108 16.4L4.46209 14.1185C4.55736 14.0207 4.61036 13.8899 4.61036 13.7536L4.61049 7.98597ZM14.309 18.3343H7.69071C8.27842 19.5713 9.5398 20.4264 10.9998 20.4264C12.4598 20.4264 13.7212 19.5713 14.3089 18.3343H14.309Z"/>
</mask>
<path fill-rule="evenodd" clip-rule="evenodd" d="M10.9999 0.551117C6.89361 0.551117 3.56442 3.87988 3.56442 7.98597V13.5411L1.49166 15.6706C0.523595 16.6649 1.22803 18.3341 2.61597 18.3341H6.56042C7.20671 20.1622 8.94958 21.4723 10.9997 21.4723C13.0498 21.4723 14.7926 20.1622 15.439 18.3341H19.3834C20.7713 18.3341 21.4758 16.6649 20.5079 15.6706L18.4347 13.5411V7.98597C18.4347 3.8797 15.1059 0.551117 10.9998 0.551117H10.9999ZM4.61049 7.98597C4.61049 4.45761 7.47104 1.59718 10.9999 1.59718C14.5287 1.59718 17.3887 4.45773 17.3887 7.98597V13.7536C17.3887 13.8899 17.4421 14.0207 17.5372 14.1185L19.7582 16.4C20.0809 16.7316 19.846 17.288 19.3834 17.288H2.61584C2.15328 17.288 1.91839 16.7316 2.24108 16.4L4.46209 14.1185C4.55736 14.0207 4.61036 13.8899 4.61036 13.7536L4.61049 7.98597ZM14.309 18.3343H7.69071C8.27842 19.5713 9.5398 20.4264 10.9998 20.4264C12.4598 20.4264 13.7212 19.5713 14.3089 18.3343H14.309Z" fill="#1A1A1A"/>
<path d="M3.56442 13.5411L3.7794 13.7504L3.86442 13.663V13.5411H3.56442ZM1.49166 15.6706L1.7066 15.8799L1.70663 15.8799L1.49166 15.6706ZM6.56042 18.3341L6.84326 18.2341L6.77255 18.0341H6.56042V18.3341ZM15.439 18.3341V18.0341H15.2268L15.1561 18.2341L15.439 18.3341ZM20.5079 15.6706L20.7229 15.4614L20.7229 15.4613L20.5079 15.6706ZM18.4347 13.5411H18.1347V13.663L18.2197 13.7504L18.4347 13.5411ZM4.61049 7.98597L4.91049 7.98597V7.98597H4.61049ZM17.5372 14.1185L17.322 14.3276L17.3222 14.3278L17.5372 14.1185ZM19.7582 16.4L19.9732 16.1908L19.9731 16.1908L19.7582 16.4ZM2.24108 16.4L2.02612 16.1908L2.0261 16.1908L2.24108 16.4ZM4.46209 14.1185L4.24716 13.9092L4.24713 13.9093L4.46209 14.1185ZM4.61036 13.7536L4.31036 13.7536V13.7536H4.61036ZM7.69071 18.3343V18.0343H7.21605L7.41974 18.463L7.69071 18.3343ZM14.3089 18.3343V18.0343H14.1193L14.0379 18.2055L14.3089 18.3343ZM10.9999 0.251117C6.72795 0.251117 3.26442 3.71417 3.26442 7.98597H3.86442C3.86442 4.0456 7.05927 0.851117 10.9999 0.851117V0.251117ZM3.26442 7.98597V13.5411H3.86442V7.98597H3.26442ZM3.34945 13.3319L1.27668 15.4614L1.70663 15.8799L3.7794 13.7504L3.34945 13.3319ZM1.27671 15.4613C0.123532 16.6457 0.962706 18.6341 2.61597 18.6341V18.0341C1.49336 18.0341 0.923659 16.684 1.7066 15.8799L1.27671 15.4613ZM2.61597 18.6341H6.56042V18.0341H2.61597V18.6341ZM6.27758 18.4341C6.96489 20.3782 8.81843 21.7723 10.9997 21.7723V21.1723C9.08073 21.1723 7.44853 19.9462 6.84326 18.2341L6.27758 18.4341ZM10.9997 21.7723C13.181 21.7723 15.0344 20.3782 15.7218 18.4342L15.1561 18.2341C14.5508 19.9462 12.9186 21.1723 10.9997 21.1723V21.7723ZM15.439 18.6341H19.3834V18.0341H15.439V18.6341ZM19.3834 18.6341C21.0367 18.6341 21.8758 16.6457 20.7229 15.4614L20.2929 15.8799C21.0757 16.684 20.506 18.0341 19.3834 18.0341V18.6341ZM20.7229 15.4613L18.6496 13.3319L18.2197 13.7504L20.293 15.8799L20.7229 15.4613ZM18.7347 13.5411V7.98597H18.1347V13.5411H18.7347ZM18.7347 7.98597C18.7347 3.71401 15.2716 0.251117 10.9998 0.251117V0.851117C14.9402 0.851117 18.1347 4.04539 18.1347 7.98597H18.7347ZM10.9998 0.851117H10.9999V0.251117H10.9998V0.851117ZM4.91049 7.98597C4.91049 4.62332 7.6367 1.89718 10.9999 1.89718V1.29718C7.30537 1.29718 4.31049 4.2919 4.31049 7.98597H4.91049ZM10.9999 1.89718C14.363 1.89718 17.0887 4.6234 17.0887 7.98597H17.6887C17.6887 4.29206 14.6944 1.29718 10.9999 1.29718V1.89718ZM17.0887 7.98597V13.7536H17.6887V7.98597H17.0887ZM17.0887 13.7536C17.0887 13.9686 17.173 14.1742 17.322 14.3276L17.7523 13.9095C17.7113 13.8672 17.6887 13.8112 17.6887 13.7536H17.0887ZM17.3222 14.3278L19.5432 16.6093L19.9731 16.1908L17.7521 13.9093L17.3222 14.3278ZM19.5432 16.6093C19.6809 16.7508 19.5806 16.988 19.3834 16.988V17.588C20.1114 17.588 20.4808 16.7124 19.9732 16.1908L19.5432 16.6093ZM19.3834 16.988H2.61584V17.588H19.3834V16.988ZM2.61584 16.988C2.41866 16.988 2.31839 16.7507 2.45606 16.6093L2.0261 16.1908C1.51839 16.7124 1.88791 17.588 2.61584 17.588V16.988ZM2.45605 16.6093L4.67705 14.3278L4.24713 13.9093L2.02612 16.1908L2.45605 16.6093ZM4.67702 14.3278C4.82695 14.1739 4.91036 13.968 4.91036 13.7536H4.31036C4.31036 13.8119 4.28778 13.8675 4.24716 13.9092L4.67702 14.3278ZM4.91036 13.7536L4.91049 7.98597L4.31049 7.98596L4.31036 13.7536L4.91036 13.7536ZM14.309 18.0343H7.69071V18.6343H14.309V18.0343ZM7.41974 18.463C8.05528 19.8007 9.41971 20.7264 10.9998 20.7264V20.1264C9.65988 20.1264 8.50156 19.3419 7.96169 18.2055L7.41974 18.463ZM10.9998 20.7264C12.5799 20.7264 13.9443 19.8007 14.5799 18.463L14.0379 18.2055C13.4981 19.3419 12.3397 20.1264 10.9998 20.1264V20.7264ZM14.3089 18.6343H14.309V18.0343H14.3089V18.6343Z" fill="#1A1A1A" mask="url(#path-1-outside-1_56_3129)"/>
</svg>
