<svg width="22" height="22" viewBox="0 0 22 22" fill="none" xmlns="http://www.w3.org/2000/svg">
<path d="M20.4286 17.8991L20.4286 17.8992C20.9347 19.0937 21.2041 20.3589 21.2313 21.6596L21.2313 21.6598C21.2319 21.6824 21.2279 21.7048 21.2197 21.7257C21.2115 21.7467 21.1992 21.7658 21.1834 21.7819C21.1677 21.798 21.1489 21.8108 21.1282 21.8196C21.1074 21.8283 21.0851 21.8328 21.0626 21.8328H19.4219C19.3286 21.8328 19.2553 21.7614 19.2532 21.6684L19.2532 21.6682C19.1982 19.5445 18.3453 17.5553 16.8378 16.0478C15.278 14.4881 13.2063 13.6297 11.0001 13.6297C8.79384 13.6297 6.72213 14.4881 5.16237 16.0478C3.65487 17.5553 2.80198 19.5445 2.74696 21.6682L2.74696 21.6684C2.74485 21.7591 2.67108 21.8328 2.57819 21.8328H0.937568C0.915033 21.8328 0.892739 21.8283 0.871985 21.8196C0.851231 21.8108 0.832438 21.798 0.816713 21.7819C0.800986 21.7658 0.788645 21.7467 0.780416 21.7257C0.772189 21.7048 0.76824 21.6824 0.768804 21.6598L0.768809 21.6596C0.793792 20.3672 1.06627 19.0917 1.57148 17.902L1.57151 17.9019C2.0858 16.6866 2.83057 15.5824 3.76468 14.6502L3.76477 14.6501C4.70357 13.7086 5.79737 12.9713 7.01638 12.457L7.01642 12.4571L7.0193 12.4557C7.02206 12.4543 7.02511 12.4531 7.03091 12.4509L7.03154 12.4507C7.03668 12.4488 7.04427 12.4459 7.05212 12.442L7.12586 12.4051L7.05907 12.3568C5.36799 11.1326 4.26882 9.14305 4.26882 6.89844C4.26882 3.17996 7.28159 0.167188 11.0001 0.167188C14.7185 0.167188 17.7313 3.17996 17.7313 6.89844C17.7313 9.14306 16.6321 11.1325 14.9411 12.354L14.8742 12.4023L14.948 12.4393C14.9559 12.4432 14.9635 12.446 14.9686 12.448L14.9692 12.4482C14.975 12.4504 14.9781 12.4515 14.9808 12.4529L14.9808 12.453L14.9837 12.4542C16.199 12.9685 17.3032 13.7133 18.2354 14.6474L18.2355 14.6475C19.1705 15.5789 19.9153 16.6833 20.4286 17.8991ZM7.63971 10.2588C8.53775 11.1568 9.73171 11.6516 11.0001 11.6516C12.2684 11.6516 13.4624 11.1568 14.3604 10.2588C15.2585 9.36075 15.7532 8.16679 15.7532 6.89844C15.7532 5.63008 15.2585 4.43612 14.3604 3.53808C13.4624 2.64004 12.2684 2.14531 11.0001 2.14531C9.73171 2.14531 8.53775 2.64004 7.63971 3.53808C6.74167 4.43612 6.24694 5.63008 6.24694 6.89844C6.24694 8.16679 6.74167 9.36075 7.63971 10.2588Z" fill="#1A1A1A" stroke="white" stroke-width="0.1"/>
</svg>
